<svg xmlns="http://www.w3.org/2000/svg" viewBox="0 0 626.48 612.8"><defs><style>.cls-1{fill:#603913;}</style></defs><g id="Layer_2" data-name="Layer 2"><g id="Layer_2-2" data-name="Layer 2"><path class="cls-1" d="M384.53,511.39c17.93,7.91,77.11-21.81,37.79-76.37,53.68,47.54,98.43,9.41,86.75-15.07,65.77,17.53,76.94-62.45,22.07-69.7,20-14.13.89-64.68-40.93-59.33,76.16-22.61,64.25-74.56,36.88-78.12,25.8-47.29-22.12-75.34-61.28-31.38,3.21-24.29-20.95-39.18-48.19-15.75,23.49-36.41,10-75.53-21.81-64.45,5.12-51-68.34-66.13-81.68,8-18.91-7.37-29.37,7.93-34.06,24.65-12.85-46.41-55.68-46.45-66.52-21.5-27-62.63-113.51-6.14-61.18,59.13-23.36,7.76-27.21,36.48-.09,51.07-40.2-6.05-50.46,27.21-30.08,38.59-76.67-1.5-73.17,81.62-2.84,79.36-28.64,23.61,17.48,31.81,23.33,29.13-49.82,24-38,59.84-9.52,62.8-37.94,55.17,35,80.16,59,53.35,9.86,34,50.26,7.94,60-17.28-9.14,67.53,33.17,70.63,57.33,53.12C312.08,598.23,408.64,564,384.53,511.39ZM524,355c24.3,9.12,20.94,35.16,16.27,44.25-6.76,13.15-30.3,18.24-42.31,9.11-1.06,17.3-31.2,52.37-76.42,10.77-27.89-25.65-59.58-67.92-66.6-82.23-.11-.2-.32-.44-.51-.73.11-.14.2-.3.31-.44l59.53,41.49a11.93,11.93,0,1,0,3.23-3.55l-60-41.82a28.44,28.44,0,0,0,1.71-3.4l83,36.71a11.88,11.88,0,1,0,3.63-5.56,12.26,12.26,0,0,0-1.32,1.38l-83.64-37h0L441,336a11.94,11.94,0,1,0-.57-4.92l-78.56-11.82c.08-.6.22-1.19.27-1.8,36.9-3.82,75.44-8.32,110.83-20.06C513.44,299.35,527.93,337.93,524,355ZM427.29,175.26c17.51-11,32.86,11.87,33.7,19,19.56-13,53.68-20.93,54.62,3.58,0,.35-1,13-7.63,19.93,8.75-1.59,30.63,17.34,15.46,33.65-15.53,16.7-33.35,27.73-54.4,34.94-23.13,8.09-95.14,22.47-107.1,24.74a18.28,18.28,0,0,0-.48-5.2L426.8,277.7a11.72,11.72,0,0,0,1.68,2.69,12,12,0,1,0-2.79-7.39L360,301.34a28.56,28.56,0,0,0-2.47-4.46L432,245c.06.07.09.15.16.23a12,12,0,1,0-2.38-4.5l-75.21,52.44c-.2-.23-.4-.49-.61-.71l40.67-47.7a11.93,11.93,0,1,0-3.21-3.57l-41,48.12a21.31,21.31,0,0,0-5.9-3.22c2.13-3.3,3.93-7.31,5.15-9.29,5.65-9.1,10.83-18.49,16.44-27.62,8-13.21,17.71-25.12,26.52-37.75C401.72,198.26,413.09,184.21,427.29,175.26ZM303.93,116.61c4.07-1.85,13.91-3.37,17,.79-3.31-4.49,17.06-30.19,33.57-32.26,25.72-3.21,30.38,4.38,36.47,25.35,3.22-4.81,30.94-.06,26.94,20.49-2.91,14.92-6.12,30.64-13,44.5-7.77,7.71-13.66,17.56-19.85,26-16.26,22.27-37.68,65.54-46.58,82.17-.45-.13-.91-.16-1.36-.27l33.35-75.86a12,12,0,1,0-5-.43L332.2,282.66h-.48L345,189.41a11.69,11.69,0,0,0,6-2.69,11.94,11.94,0,1,0-10.76,2.44L326.9,282.7c-.95.08-1.89.17-2.82.33l-7.88-68.62a11.94,11.94,0,1,0-4.73.54l7.94,69.26c-.26.09-.53.12-.8.22-1.57-3.55-21.44-64.46-26-92.11C289.5,173.92,281.34,126.54,303.93,116.61ZM160.61,172.34c-16.93-19.78-1.77-43.44,6-51.23,16.18-16,33.27-9.85,48.64,2.93-1.79-12,45.39-21.59,62.37,21.8-.35,2.76-.57,5.42-.64,7.87-.8,26.74,5.67,53.75,14.17,78.93,3.36,10,11.24,29.9,16.66,42.88l-29.78-59.77a11.92,11.92,0,1,0-3.84,3l31,62.31-59.76-82.93a11.93,11.93,0,1,0-3.24,3.66l65,90.21c-.76.72-1.49,1.43-2.17,2.14l-68.48-61.87a11.94,11.94,0,1,0-3.81,3l65.6,59.27c-8.24-6-27.05-19.53-36.23-25.3-17.53-11-79.44-44.4-92.61-50.18C134.53,203.67,155.12,177.83,160.61,172.34Zm-10.88,184.1c-22.12,4.47-22.06-17.43-20.6-22.33-38.87,1.08-45.21-28.71-38.86-40,10.63-18.91,34-24.82,53.64-28.75-26.12-10.74-5.92-39.41,18-36,34,10.23,102.17,52.32,137.45,73.68a2.25,2.25,0,0,1-.08.24l-67.41-21.69a12,12,0,1,0-3.32,3.93l69.38,22.33c-.15.66-.3,1.32-.41,2L199.34,296.9A11.88,11.88,0,0,0,180,285.48a11.92,11.92,0,0,0,15.46,18.15,12.08,12.08,0,0,0,1.94-2.18l99.74,13.12c0,.52,0,1,0,1.55l-76.92,5.57a11.77,11.77,0,0,0-2.8-7.85,12,12,0,1,0,1.73,12.71l50.42-3.66c-2.92.63-5.61,1.25-7.76,1.82-22.11,5.92-43.62,13.65-65.31,20.9C181.17,350.73,165.74,353.21,149.73,356.44Zm52.19,114.28c-22.26,21.7-70.1-3.82-61.25-40-20.06-7-24.5-41.57,14.73-61.5C167.88,368,261.87,328.86,298.33,324c.18.64.43,1.41.7,2.23l-61,27.44s-.05-.08-.07-.1a11.95,11.95,0,1,0,2.33,4.31l60.54-27.23c.4.84.85,1.68,1.33,2.51l-76.32,57.66c-.05-.06-.09-.14-.14-.2a12,12,0,1,0,2.37,4.49L304.92,337a19.76,19.76,0,0,0,1.58,1.59l-54.76,62a11.92,11.92,0,1,0,3.25,3.52L308.11,344c-8.68,13.82-45.12,72.08-52.28,91.27C232.11,498.86,203.36,488.39,201.92,470.72Zm112.63,35.74c-13.39,13.41-66.54,4.94-51.74-62.28,4.91-22.32,45.07-84.47,53.33-99.51a33,33,0,0,0,6.74,2.13l-14.36,66.61a11.85,11.85,0,1,0,4.27,3.14l-.06-.06,14.64-67.92,14.32,87.89a11.88,11.88,0,1,0,4.86.18L332,347.43a32.47,32.47,0,0,0,7.29-1.38l24.76,60.5-.19.13a12,12,0,1,0,4.43-2.36l-24.56-60a33.07,33.07,0,0,0,6.19-3.83c12.63,27.93,50.14,73.39,59.81,83.22,20.76,32.41,10.85,72.65-39.66,75.15C383.21,540.23,328.39,563.46,314.55,506.46Z"/><path class="cls-1" d="M55.42,378.23c28.41-2.94,47.26.8,47.26.8s-13.39,12.51-37.41,28.9c-20.34,13.88-44.54,7.4-47.26-.8S30.91,380.77,55.42,378.23Z"/><path class="cls-1" d="M105.62,383.75c-6.52,14.43-28.91,46-16,63.95C65.21,449.94,61.07,407.87,105.62,383.75Z"/><path class="cls-1" d="M102.18,373.38c-13.85-7.66-50.7-19.61-51.08-41.68C30.21,344.5,52.05,380.7,102.18,373.38Z"/><path class="cls-1" d="M50.35,370.66C24.2,377-11.4,348.09,3.53,320.23c5.34-10,19.8-18.19,30.34-10.79,4.74,3.32,8.33,10.21,5.74,15.91-2.42,5.29-13,8.7-13.91.43,3.39-1.65,3.68,3.17,7.34,1.16,6.74-3.3,1-12.06-3.71-13.94C18.85,308.85,8,320.65,7.06,330.28c-1.18,11.75,6.75,24,16,30.52a40.3,40.3,0,0,0,15.87,6.7c3.26.62,12-1.22,11.45,3.16Z"/><path class="cls-1" d="M67.06,419.55c-17.73,10.85-28.17,41.62-10.3,57.39,6.76,6,21.2,7.91,26.66-.94,2.47-4,2.51-12-3.2-13.35-6-1.38-3.33,4.51-7.35,5.26-3.72-6.27,4.64-10.32,9.73-8.69,6.77,2.19,8.59,10.83,6.59,16.91-4.28,13-22.19,14.42-32.52,8.58-12.82-7.23-16.81-24.6-14.15-38.17A41.32,41.32,0,0,1,51.39,428c2-2.38,14.25-14.67,15.67-8.42Z"/><path class="cls-1" d="M86.12,178.74c22.76,17.25,34,32.86,34,32.86s-18.32,0-47.06-4.43c-24.35-3.76-37.59-25-34-32.86S66.48,163.86,86.12,178.74Z"/><path class="cls-1" d="M119,217.06c-14.62,6.09-52.56,13.89-55.38,35.78C44.3,237.82,70,204.25,119,217.06Z"/><path class="cls-1" d="M123.59,207.13c-4.88-15.06-23.64-48.95-8.85-65.33C90.74,136.88,82,178.24,123.59,207.13Z"/><path class="cls-1" d="M87.59,169.75c-23.43-13.24-29.7-58.66.23-68.82,10.69-3.63,26.88.24,29.53,12.84,1.19,5.67-.88,13.15-6.67,15.54-5.37,2.22-15.47-2.55-10.46-9.18,3.61,1.11.52,4.83,4.58,5.86,7.17,2.19,9-8.12,6.81-12.73-4.83-10.18-20.83-9-28.07-2.57-8.9,7.77-11.45,22.12-9.18,33.2a40.32,40.32,0,0,0,7,15.74c2,2.66,9.62,7.31,6.21,10.12Z"/><path class="cls-1" d="M66.4,216.88c-20.34-4.18-49,11.17-46.71,34.88.86,9,10.09,20.27,20.13,17.52,4.53-1.23,10-7.07,6.77-11.93-3.44-5.11-5.5,1-9-1.18,1.56-7.12,10.44-4.37,13,.3,3.45,6.22-1.12,13.78-6.73,16.85-12,6.57-26.06-4.62-29.63-15.93-4.42-14,4.53-29.46,15.75-37.56a41.27,41.27,0,0,1,19.15-7.5c3.12-.35,20.43-1,17.19,4.55Z"/><path class="cls-1" d="M205.68,546.91c15-24.33,29.43-37,29.43-37s1.76,18.24.12,47.27c-1.38,24.6-21.26,39.84-29.42,37S192.76,567.9,205.68,546.91Z"/><path class="cls-1" d="M240.65,510.46c7.46,14,18.89,51,41,51.66C268.51,582.83,232.62,560.48,240.65,510.46Z"/><path class="cls-1" d="M230.32,506.87c-14.52,6.32-46.44,28.26-64.17,15.12C163.57,546.35,205.58,551.08,230.32,506.87Z"/><path class="cls-1" d="M196.59,546.31c-10.92,24.6-55.52,35.23-68.52,6.41-4.64-10.29-2.36-26.78,9.92-30.62,5.53-1.74,13.19-.4,16.12,5.13,2.73,5.14-1,15.64-8.13,11.3.75-3.7,4.75-1,5.39-5.12,1.49-7.35-8.94-8.16-13.32-5.55-9.67,5.78-7,21.61.14,28.19,8.6,8.1,23.13,9.26,33.94,5.92a40.05,40.05,0,0,0,15-8.5c2.46-2.2,6.35-10.28,9.48-7.16Z"/><path class="cls-1" d="M245.54,562.85c-2.2,20.66,15.85,47.69,39.24,43.13,8.86-1.72,19.18-12,15.49-21.72-1.67-4.39-8-9.31-12.53-5.59-4.76,3.92,1.54,5.38-.31,9-7.24-.86-5.36-10-1-13,5.86-4.05,13.83-.22,17.43,5.06,7.69,11.32-2.09,26.39-13,31-13.55,5.76-29.77-1.66-38.9-12a41.28,41.28,0,0,1-9.32-18.35c-.64-3.06-3-20.23,2.87-17.55Z"/><path class="cls-1" d="M460.62,513.69c-10.16-26.69-11.4-45.88-11.4-45.88s15.54,9.72,37.56,28.7c18.66,16.09,18.62,41.14,11.4,45.89S469.39,536.71,460.62,513.69Z"/><path class="cls-1" d="M453,463.75c15.62,2.59,51.94,16.09,65.92-1C527.4,485.76,487.8,500.6,453,463.75Z"/><path class="cls-1" d="M443.91,469.75c-3.86,15.36-5.92,54-27.13,60.09C434.51,546.74,463.87,516.31,443.91,469.75Z"/><path class="cls-1" d="M454.61,520.53c12.84,23.66-5.9,65.49-36.67,58.22-11-2.58-22.67-14.44-18.23-26.52,2-5.44,7.71-10.69,13.89-9.64,5.73,1,11.77,10.35,4,13.33-2.48-2.85,2.11-4.37-.78-7.4-4.92-5.66-11.92,2.12-12.51,7.18-1.31,11.2,12.88,18.68,22.42,17.06,11.67-1.87,21.45-12.68,25.39-23.29a40.28,40.28,0,0,0,2.39-17.06c-.25-3.3-4.28-11.3.1-11.88Z"/><path class="cls-1" d="M497.55,491.8c15,14.34,47.47,16.5,58.11-4.83,4-8.06,2.18-22.52-7.78-25.52-4.5-1.35-12.26.68-12.07,6.54.21,6.15,5.21,2,7,5.74-5.1,5.22-11.16-1.83-10.89-7.16.36-7.1,8.25-11.09,14.63-10.72,13.67.79,19.65,17.73,16.68,29.2-3.7,14.26-19.46,22.6-33.26,23.51a41.11,41.11,0,0,1-20.22-3.79c-2.82-1.35-17.84-10-12.17-13Z"/><path class="cls-1" d="M582.77,303.5c-28.28-4.09-45.65-12.34-45.65-12.34s16-8.85,43.34-18.86c23.14-8.49,45,3.72,45.65,12.34S607.15,307,582.77,303.5Z"/><path class="cls-1" d="M535.43,285.86c9.85-12.4,39.3-37.57,31.18-58.09C590.81,231.57,584.54,273.38,535.43,285.86Z"/><path class="cls-1" d="M536.24,296.76c11.55,10.82,44.36,31.43,39.32,52.91C599,342.38,586.63,301.93,536.24,296.76Z"/><path class="cls-1" d="M585.82,312.09c26.91.27,54.35,37,33,60.34-7.59,8.36-23.63,12.79-32,3.05-3.79-4.39-5.59-12-1.68-16.83,3.64-4.54,14.77-5.25,13.6,3-3.7.77-2.79-4-6.84-2.92-7.34,1.55-3.94,11.45.2,14.42,9.14,6.6,22.57-2.18,25.8-11.3,4-11.1-.66-24.9-8-33.51a40.67,40.67,0,0,0-13.75-10.39c-3-1.37-11.95-1.73-10.33-5.84Z"/><path class="cls-1" d="M581.59,260.58c19.83-6.17,37.49-33.46,24-53.12-5.09-7.45-18.63-12.85-26.09-5.6-3.37,3.27-5.37,11-.16,13.72,5.48,2.8,4.33-3.56,8.42-3.3,2.07,7-7,8.87-11.57,6-6-3.77-5.67-12.61-2.25-18,7.33-11.56,25-8.56,33.63-.38,10.66,10.16,10.29,28,4.38,40.49a41.35,41.35,0,0,1-13.14,15.83c-2.56,1.81-17.41,10.74-17.25,4.32Z"/><path class="cls-1" d="M495.71,109.57c-21.63,18.66-39.24,26.37-39.24,26.37s3.84-17.92,14.17-45.1c8.75-23,32.31-31.54,39.24-26.37S514.36,93.47,495.71,109.57Z"/><path class="cls-1" d="M451.35,133.74c-2.89-15.56-2.6-54.31-23.41-61.62C446.67,56.33,474.13,88.48,451.35,133.74Z"/><path class="cls-1" d="M460.11,140.28c15.75-1.63,52.82-12.89,65.73,5C535.68,122.83,497.06,105.62,460.11,140.28Z"/><path class="cls-1" d="M504.2,112.89c17.84-20.15,63.56-16.8,67.22,14.59,1.34,11.21-5.83,26.24-18.7,26.2-5.8,0-12.68-3.61-13.8-9.76-1-5.73,5.72-14.6,11.16-8.32-1.84,3.3-4.82-.49-6.69,3.26-3.63,6.55,6.06,10.48,11,9.3,11-2.59,13.15-18.49,8.38-26.9-5.74-10.32-19.25-15.82-30.56-15.91a40.37,40.37,0,0,0-16.86,3.57c-3,1.36-9.15,7.88-11.18,4Z"/><path class="cls-1" d="M462.53,82.32c8.35-19-.69-50.25-24.36-53-9-1-21.92,5.64-21.33,16,.25,4.69,4.82,11.3,10.26,9.12,5.7-2.3.14-5.6,3-8.52,6.63,3,2.08,11.12-3,12.69-6.8,2.08-13.24-4-15.07-10.1C408.11,35.45,422,24,433.79,22.91c14.66-1.38,27.88,10.59,33.45,23.24a41.28,41.28,0,0,1,3.33,20.31c-.31,3.11-3.3,20.18-8,15.86Z"/><path class="cls-1" d="M293.09,49.75c-.57,28.57-6.6,46.82-6.6,46.82S275.72,81.74,262.41,55.9C251.12,34,260.54,10.77,269,9.08S293.58,25.12,293.09,49.75Z"/><path class="cls-1" d="M281.43,98.91c-13.51-8.25-42.13-34.36-61.49-23.76C220.71,50.66,263,51.72,281.43,98.91Z"/><path class="cls-1" d="M292.15,96.76c9.32-12.81,25.7-47.91,47.64-45.57C329.67,28.88,291.06,46.11,292.15,96.76Z"/><path class="cls-1" d="M301.23,45.66c-3.06-26.74,30-58.52,55.79-40.27,9.23,6.51,15.61,21.88,7,31.42-3.88,4.31-11.16,7-16.49,3.75-5-3.05-7-14,1.27-13.87,1.23,3.58-3.59,3.27-2.05,7.16,2.46,7.09,11.85,2.5,14.29-2,5.41-9.9-4.95-22.14-14.41-24.21C335.1,5,322,11.4,314.36,19.76a40.41,40.41,0,0,0-8.6,14.92c-1,3.16-.26,12.08-4.53,11Z"/><path class="cls-1" d="M250.64,56.23C242.07,37.3,212.8,23.16,195,39c-6.76,6-10.45,20.08-2.33,26.58,3.66,3,11.62,4,13.64-1.53,2.1-5.79-4.07-3.86-4.32-8,6.68-2.92,9.67,5.88,7.42,10.72-3,6.45-11.8,7.2-17.58,4.47-12.38-5.85-11.59-23.79-4.54-33.33,8.76-11.83,26.5-13.66,39.64-9.35a41.23,41.23,0,0,1,17.33,11.08c2.11,2.32,12.81,16,6.42,16.59Z"/></g></g></svg>