<svg xmlns="http://www.w3.org/2000/svg" viewBox="0 0 1062.74 784.62"><defs><style>.cls-1{fill:#603913;}</style></defs><g id="Layer_2" data-name="Layer 2"><g id="Layer_2-2" data-name="Layer 2"><path class="cls-1" d="M616.56,525.2c-123-49.87-246.1-120.07-383.56-98.92C158.13,437.81,59.46,488.87,6.52,569.17-6,588.22,0,619.25,20.39,632.4c18.31,11.84,49.71,6.8,52.86-18.27,1.41-11.09-4.62-23.41-16.59-24.75C47.13,588.3,36.12,596.3,41,606.83c7.47-.61,2.62-10,11.69-10.19,6.25-.11,10.14,4.86,10.84,10.59,2.26,19.3-21.82,23.68-35,16.2-15.65-8.86-18.86-30.34-14-46.26a64.8,64.8,0,0,1,5-11.64c31.53-5,63.58-9.63,95.72-11.88a40,40,0,0,0-6,7.86c-6.79,12.08-6.47,27.16,4.1,37.19,11.12,10.48,32.6,10.32,36.75-7.37,3.15-14.43-19.72-24.88-21.28-9.41,5.74,3,12.29-5.16,12.61,6.08-2.22,11.9-17.57,6.17-22-.24-9.76-14,1.75-28.37,15.6-35.17a448.63,448.63,0,0,1,70.42,2.6,38.87,38.87,0,0,0-10.47,9.59c-8.29,11.07-9.92,26.08-.76,37.38,9.62,11.82,31,14.49,37.38-2.53,5-13.88-16.33-27.25-19.82-12.13,3.65,2.64,15.27-2.53,11.74,7.48-3.44,9.82-15.39,5.84-20.12-.17-12.82-16.34,5.15-32.08,22.17-36.5,8.35,1.54,16.67,3.3,25,5.56a367.42,367.42,0,0,1,46.18,15.9,38.53,38.53,0,0,0-18,13.23c-8.28,11.06-10,26.07-.75,37.39,9.62,11.81,31,14.48,37.33-2.54,5-13.88-16.27-27.2-19.82-12.13,3.7,2.63,15.32-2.48,11.79,7.52-3.45,9.78-15.44,5.8-20.12-.21-13.34-16.93,6.6-33.28,24.09-36.95,21.88,9.89,43.21,21.16,64.46,32.48a38.17,38.17,0,0,0-22.12,14.33c-8.28,11.13-9.92,26.08-.7,37.4,9.62,11.85,30.95,14.48,37.33-2.49,5.05-13.93-16.33-27.25-19.82-12.13,3.66,2.64,15.27-2.54,11.79,7.47-3.45,9.82-15.44,5.84-20.17-.16-14-17.89,8.88-35.09,26.92-37.42,14.33,7.51,28.65,15,43.17,21.79q13,6.14,26.36,12a38.76,38.76,0,0,0-18,13.21c-8.28,11.08-9.92,26.09-.71,37.4,9.63,11.81,30.95,14.48,37.33-2.54,5.06-13.88-16.32-27.2-19.82-12.13,3.66,2.64,15.27-2.53,11.79,7.53-3.44,9.77-15.44,5.79-20.16-.22-13.29-16.93,6.56-33.22,24.05-36.89,24.53,10.53,49.9,20.45,75.71,29.14A38.51,38.51,0,0,0,533,707.21c-8.28,11.07-9.92,26.08-.7,37.39,9.63,11.81,31,14.48,37.33-2.54,5-13.88-16.33-27.24-19.82-12.13,3.65,2.64,15.27-2.53,11.74,7.48-3.4,9.82-15.39,5.83-20.12-.17-13.24-16.88,6.46-33.17,24-36.89a682.06,682.06,0,0,0,81.56,20.33,38,38,0,0,0-13,13c-7.13,11.91-7.75,27.23,2.33,37.83,10.43,11,31.31,12.69,37.72-3.91,6.32-16.44-20.53-27.88-20.88-11.48,6,2.64,11.75-6.08,13,5.15-1.29,12-17,7.42-22,1.39-12.36-15.17,3.23-33.06,19-39.21a485.05,485.05,0,0,0,73.33,5.74,38.37,38.37,0,0,0-8.87,16.22c-3.5,13.46.21,28.32,12.89,35.64,13.14,7.58,33.64,3.28,35.11-14.39s-27.54-21-23.3-5.17c4.48.58,12.3-9.42,13.92,1.08,1.55,10.22-10.88,12.39-17.86,9.29-19.1-8.39-10.49-31.09,2.71-42.91A379.8,379.8,0,0,0,820,720.46a38,38,0,0,0-5.2,19.72c.18,14.4,8.36,28.17,23.26,31.29,15.54,3.28,35-9.31,27.53-27.13-5.81-13.39-30.58-8.64-22.72,4.81,4.45-.61,9.4-12.33,13.68-2.62,4.23,9.48-7.13,14.82-14.7,13.68-21.12-3.12-18.26-28.28-8.16-43.05A299.38,299.38,0,0,0,899,691.28a38,38,0,0,0-2.19,16.89c1.43,14.38,10.7,27.41,25.86,29.23,15.78,1.92,34.09-12.26,25.14-29.38-7-12.84-31.23-6-22.26,6.75,4.38-1,8.3-13.12,13.42-3.85,5,9.09-5.92,15.41-13.54,14.94-21.91-1.34-20.49-28.18-10.91-43.59a287.41,287.41,0,0,0,43.16-32.89,36.12,36.12,0,0,0,1.67,8.92c4.39,13.76,16.2,24.53,31.4,23.15,15.81-1.42,30.79-19.13,18.39-34-9.49-11.1-31.76.71-20.3,11.26,5.85-2.7,3.29-13,12.45-6.38,8.15,8.91-5.67,17.7-13.47,17.43-16.13-.61-21.11-16.73-19.07-31.33a257.54,257.54,0,0,0,54.86-85.4c-64.32,17-130.28,34.36-197.36,30.84C753.26,580.08,683.5,552.37,616.56,525.2Zm159.82,88.44c14.79,36.32,89.88,41.06,104.21,1.56,24,21.42,60.63,19.45,84.11-2.08a51.86,51.86,0,0,0,16.57-34.38q8.75-2.13,17.48-4.38C951.14,662.45,856.64,709.22,759.14,714c-142,7-277.6-55.83-400.41-120-40.14-21-81-40.24-125.68-49.08-60.25-11.93-170,.59-193.37,4.31,3.24-6,10.49-10.2,15.92-14.75,25.92,15.7,57.37-11.05,48.91-31.78,23.74,12,82.36-.34,81-36.61,22.07,24.22,62.59,17,74.89-15.26,19.1,27.22,60.64,32.39,83.84,7.34,12.16,37.63,51.75,44.37,81.09,21.08,4,42.11,57.6,57.27,92.06,42.22,5.58,37.85,60,56.16,90.62,37.66,2.1,42.52,58.35,54.59,88.29,31C697.63,629.76,752.94,644.15,776.38,613.64Z"/><path class="cls-1" d="M179.67,508.08a12.71,12.71,0,1,1-11.89,13.49A12.7,12.7,0,0,1,179.67,508.08Z"/><path class="cls-1" d="M234.77,498.25a12.71,12.71,0,1,1-11.89,13.49A12.71,12.71,0,0,1,234.77,498.25Z"/><path class="cls-1" d="M290.77,502.68a12.71,12.71,0,1,1-11.89,13.49A12.73,12.73,0,0,1,290.77,502.68Z"/><path class="cls-1" d="M342.91,521.7A12.71,12.71,0,1,1,331,535.18,12.71,12.71,0,0,1,342.91,521.7Z"/><path class="cls-1" d="M401.58,543.48A12.72,12.72,0,1,1,389.69,557,12.72,12.72,0,0,1,401.58,543.48Z"/><path class="cls-1" d="M465.32,569.73a12.71,12.71,0,1,1-11.89,13.48A12.71,12.71,0,0,1,465.32,569.73Z"/><path class="cls-1" d="M520.93,593.3A12.71,12.71,0,1,1,509,606.78,12.71,12.71,0,0,1,520.93,593.3Z"/><path class="cls-1" d="M584.76,621.12a12.71,12.71,0,1,1-11.88,13.49A12.72,12.72,0,0,1,584.76,621.12Z"/><path class="cls-1" d="M646.52,641.12a12.71,12.71,0,1,1-11.89,13.48A12.71,12.71,0,0,1,646.52,641.12Z"/><path class="cls-1" d="M708,656.36a12.71,12.71,0,1,1-11.89,13.49A12.72,12.72,0,0,1,708,656.36Z"/><path class="cls-1" d="M778.33,661.49A12.71,12.71,0,1,1,766.45,675,12.72,12.72,0,0,1,778.33,661.49Z"/><path class="cls-1" d="M851.28,656.91a12.71,12.71,0,1,1-11.89,13.49A12.72,12.72,0,0,1,851.28,656.91Z"/><path class="cls-1" d="M615.1,173c-20.69,1.3-39,22.84-37.67,44.29a35.6,35.6,0,0,0,2.12,10.15c-.14.05-.28.06-.42.11-7,2.26-25.51,8.25-23.52,39.88,1.22,19.56,10.19,45.88,26.65,78.37,19.79,38.92,41,70.26,64.91,95.73,29.13,31.07,67.77,58.94,108,80,45.63,23.85,96.24,33.32,137.62,33.49-67.12,5.41-127.34-18-171.78-45-47.12-28.61-85.47-53.75-113.73-95.39-26.9-39.62-41.08-78.28-57.45-123l-1.67-4.53c-8.35-22.73-40-55.23-63.17-52.29-8,1-17.78,6.66-21.6,27-20.57-35.34-43.36-43.84-58.33-39.6C392.47,225.8,385,238.11,386,253.52c.58,9.23,4.39,23.46,19,39.74-5.57,4.07-19.31,15-18.05,35.09,1.57,25,25.89,54.82,72.33,88.49,49.25,35.78,87.84,61.05,125.07,82,48.08,27,92.88,46.18,136.88,58.55,56.11,15.77,105.92,21.85,152.34,18.75,49-3.32,98.41-17,138.11-28l-.9-4.68-.22-8.94-18.29,1.75c-6.51,1.26-65.46,11.51-129.69-6.56C792.35,509.86,745.2,464.87,722.39,396c-2.48-7.48-4.21-25.33-6.18-45.93-4.88-51.09-11.52-121-37.46-131.13-7.55-2.92-16.15-.71-25.53,6.61C649,174.91,623.1,172.48,615.1,173Zm-153,240c-10.35-7.47-19.5-14.72-27.54-21.77h.24c0-.48,2.31-48.38,35-77.08,18.92-16.62,44.36-23.66,75.58-20.94l0,.09c6.23,17,12.33,33.56,19,49.86-56,12-82.33,67.12-87.91,80.26C471.78,420,467,416.59,462.07,413Zm67.57,46.91c2.17-8.79,15.16-52,62.28-60.75,3.58,6.07,7.36,12.14,11.46,18.19,3.26,4.71,6.6,9.23,10.07,13.6-36.28,6.29-49.58,37.93-53,48.37C550.49,473.24,540.25,466.81,529.64,459.89Zm76.74,45.51c3.07-7.5,14.87-31.6,41.75-39.35,17.39,14.48,36.74,27.31,58,40.48-23.83,5.37-31.67,22.63-33.88,29.31A670.13,670.13,0,0,1,606.38,505.4Zm135.13-57.35a197.51,197.51,0,0,0,21.4,28c-8.69-1.46-16.35-.26-22.79,3.58-9.16,5.45-13.41,14.64-15,19.19a397.62,397.62,0,0,1-42-30.36C687,463.13,701.82,447.92,741.51,448.05Zm-27.59-73.58c1.12,10.25,2.35,18.29,3.94,23,.69,2.15,1.5,4.21,2.25,6.31-52.64-9.35-74,13.67-80.06,22.51a352.88,352.88,0,0,1-25.34-33.94C619.78,386.5,653.51,351,713.92,374.47Zm-10.27-89c2.35,13.84,4.13,28.49,5.57,42.34-73.4-27.29-113.24,5.07-123.14,14.9a368.87,368.87,0,0,1-15.62-35C576.91,301.6,625.1,259.8,703.65,285.43Z"/><path class="cls-1" d="M487.35,410.39a2.38,2.38,0,0,1-.6,1.72,2.33,2.33,0,0,1-3.29.15l-48.24-43.81a2.37,2.37,0,0,1-.17-3.31,2.34,2.34,0,0,1,3.3-.16l48.24,43.83A2.35,2.35,0,0,1,487.35,410.39Z"/><path class="cls-1" d="M497.15,395.45a2.35,2.35,0,0,1-4,1.78l-49.62-50.52a2.31,2.31,0,0,1,.05-3.29,2.35,2.35,0,0,1,3.32,0L496.49,394A2.31,2.31,0,0,1,497.15,395.45Z"/><path class="cls-1" d="M508.7,379.75a2.33,2.33,0,0,1-.83,2,2.39,2.39,0,0,1-3.36-.26l-48.34-56.66a2.39,2.39,0,1,1,3.63-3.1l48.34,56.66A2.42,2.42,0,0,1,508.7,379.75Z"/><path class="cls-1" d="M522.23,367a2.41,2.41,0,0,1-.93,2,2.39,2.39,0,0,1-3.34-.44l-45.51-59.23a2.38,2.38,0,1,1,3.77-2.9l45.51,59.22A2.37,2.37,0,0,1,522.23,367Z"/><path class="cls-1" d="M537.13,357.07a2.38,2.38,0,0,1-4.36,1.47l-40.2-60.16a2.38,2.38,0,0,1,4-2.64l40.2,60.15A2.48,2.48,0,0,1,537.13,357.07Z"/><path class="cls-1" d="M552.21,350.15a2.38,2.38,0,0,1-4.47,1.29L516,293.14a2.38,2.38,0,1,1,4.18-2.28l31.73,58.3A2.54,2.54,0,0,1,552.21,350.15Z"/><path class="cls-1" d="M592.83,341a2.38,2.38,0,0,1-4.58,1.06l-16.18-39a2.38,2.38,0,0,1,4.4-1.82l16.18,39A2.34,2.34,0,0,1,592.83,341Z"/><path class="cls-1" d="M604.27,333.15a2.38,2.38,0,0,1-4.6,1L584,294a2.38,2.38,0,0,1,4.44-1.74l15.66,40.21A2.64,2.64,0,0,1,604.27,333.15Z"/><path class="cls-1" d="M617,326.06a2.3,2.3,0,0,1-1.65,2.34,2.4,2.4,0,0,1-3-1.48L599,286.8a2.3,2.3,0,0,1,1.55-2.9,2.39,2.39,0,0,1,3,1.48l13.26,40.12A1.85,1.85,0,0,1,617,326.06Z"/><path class="cls-1" d="M633.93,320.54a2.39,2.39,0,0,1-4.7.73l-10.34-41.14a2.39,2.39,0,0,1,4.63-1.16l10.34,41.14A2.14,2.14,0,0,1,633.93,320.54Z"/><path class="cls-1" d="M649.38,319.41a2.39,2.39,0,0,1-4.74.52l-6.92-43.62a2.35,2.35,0,0,1,2-2.69,2.38,2.38,0,0,1,2.73,1.95l6.92,43.62A1.8,1.8,0,0,1,649.38,319.41Z"/><path class="cls-1" d="M665.47,318.93a2.39,2.39,0,0,1-4.75.43l-5.17-44.27a2.39,2.39,0,0,1,4.74-.55l5.17,44.27A.45.45,0,0,0,665.47,318.93Z"/><path class="cls-1" d="M684.72,321.31a2.39,2.39,0,0,1-4.75.42l-5.17-44.3a2.32,2.32,0,0,1,2.1-2.57,2.36,2.36,0,0,1,2.64,2l5.17,44.3A.49.49,0,0,1,684.72,321.31Z"/><path class="cls-1" d="M701.13,325.87a2.39,2.39,0,0,1-4.75.46l-5.77-44.41a2.41,2.41,0,0,1,2-2.68,2.38,2.38,0,0,1,2.67,2.06l5.78,44.41C701.12,325.76,701.12,325.82,701.13,325.87Z"/><path class="cls-1" d="M646.9,422.41a2.39,2.39,0,0,1-4.3,1.56L616.5,388.6a2.38,2.38,0,1,1,3.83-2.83l26.1,35.37A2.33,2.33,0,0,1,646.9,422.41Z"/><path class="cls-1" d="M655.41,415.31a2.38,2.38,0,0,1-4.35,1.48l-25-36.63a2.38,2.38,0,1,1,3.94-2.68l25,36.63A2.35,2.35,0,0,1,655.41,415.31Z"/><path class="cls-1" d="M663.43,410a2.39,2.39,0,0,1-4.47,1.31l-20.9-38.1a2.38,2.38,0,0,1,4.18-2.29L663.14,409A2.49,2.49,0,0,1,663.43,410Z"/><path class="cls-1" d="M676.25,405a2.38,2.38,0,0,1-4.56,1.08l-16.11-37.79a2.38,2.38,0,1,1,4.38-1.87l16.1,37.79A2.53,2.53,0,0,1,676.25,405Z"/><path class="cls-1" d="M690.48,403.55a2.38,2.38,0,0,1-4.63.91l-13.21-39.17a2.38,2.38,0,1,1,4.51-1.52l13.21,39.17A2.2,2.2,0,0,1,690.48,403.55Z"/><path class="cls-1" d="M701.23,403.48a2.39,2.39,0,0,1-4.71.66l-8.3-37.09a2.39,2.39,0,1,1,4.66-1l8.29,37.09C701.2,403.23,701.21,403.35,701.23,403.48Z"/><path class="cls-1" d="M712,403.39a2.38,2.38,0,0,1-4.71.65l-7.59-35.34a2.38,2.38,0,1,1,4.66-1L711.92,403C711.94,403.16,712,403.28,712,403.39Z"/><path class="cls-1" d="M566.64,475.21a2.39,2.39,0,0,1-3.75,2.1L528.54,453.2a2.38,2.38,0,0,1,2.74-3.9l34.35,24.11A2.37,2.37,0,0,1,566.64,475.21Z"/><path class="cls-1" d="M573.06,463.46a2.3,2.3,0,0,1-.46,1.56,2.37,2.37,0,0,1-3.32.51l-34.43-25.3a2.38,2.38,0,0,1,2.82-3.84l34.42,25.3A2.35,2.35,0,0,1,573.06,463.46Z"/><path class="cls-1" d="M578.45,454.17a2.41,2.41,0,0,1-.59,1.72,2.38,2.38,0,0,1-3.36.22l-32.24-28.42a2.38,2.38,0,0,1,3.15-3.58l32.23,28.42A2.36,2.36,0,0,1,578.45,454.17Z"/><path class="cls-1" d="M589.19,444.54a2.39,2.39,0,0,1-4,1.87l-31.11-29.68a2.38,2.38,0,1,1,3.28-3.45L588.45,443A2.37,2.37,0,0,1,589.19,444.54Z"/><path class="cls-1" d="M600.74,438.44a2.39,2.39,0,0,1-4.16,1.74l-30.19-33.93a2.38,2.38,0,0,1,3.56-3.17L600.14,437A2.32,2.32,0,0,1,600.74,438.44Z"/><path class="cls-1" d="M609.44,434.39a2.27,2.27,0,0,1-1,2,2.35,2.35,0,0,1-3.26-.51L579.6,401.07a2.29,2.29,0,0,1,.52-3.23,2.34,2.34,0,0,1,3.26.52L609,433.18A2.26,2.26,0,0,1,609.44,434.39Z"/><path class="cls-1" d="M678.14,533.27a2.48,2.48,0,0,1-.24,1.21,2.31,2.31,0,0,1-3.13,1.07l-68.32-34.5a2.43,2.43,0,0,1-1.07-3.2,2.32,2.32,0,0,1,3.13-1.08l68.33,34.51A2.4,2.4,0,0,1,678.14,533.27Z"/><path class="cls-1" d="M681.71,523.5a2.49,2.49,0,0,1-.27,1.27,2.22,2.22,0,0,1-3.07,1l-65-36.51a2.45,2.45,0,0,1-1-3.23,2.21,2.21,0,0,1,3.07-1l65,36.51A2.42,2.42,0,0,1,681.71,523.5Z"/><path class="cls-1" d="M691.56,515.71a2.38,2.38,0,0,1-3.56,2.22l-65.65-37.67a2.38,2.38,0,1,1,2.37-4.12l65.65,37.66A2.33,2.33,0,0,1,691.56,515.71Z"/><path class="cls-1" d="M700.78,510.36a2.37,2.37,0,0,1-.38,1.45,2.4,2.4,0,0,1-3.3.7l-63.5-41.39a2.38,2.38,0,1,1,2.61-4l63.49,41.38A2.38,2.38,0,0,1,700.78,510.36Z"/><path class="cls-1" d="M729.72,496a2.32,2.32,0,0,1-.48,1.59,2.38,2.38,0,0,1-3.34.45l-42-32a2.38,2.38,0,1,1,2.88-3.78l42,32A2.33,2.33,0,0,1,729.72,496Z"/><path class="cls-1" d="M736.34,487.23a2.5,2.5,0,0,1-.51,1.64,2.39,2.39,0,0,1-3.35.37l-39.6-31.54a2.39,2.39,0,1,1,3-3.73l39.59,31.54A2.38,2.38,0,0,1,736.34,487.23Z"/><path class="cls-1" d="M743.73,481.39a2.33,2.33,0,0,1-.59,1.72,2.37,2.37,0,0,1-3.36.22L705,452.68a2.38,2.38,0,0,1,3.15-3.58l34.76,30.66A2.36,2.36,0,0,1,743.73,481.39Z"/><path class="cls-1" d="M752.5,478.45a2.38,2.38,0,0,1-4,1.85l-31.19-30.88a2.38,2.38,0,0,1,3.35-3.39l31.19,30.88A2.41,2.41,0,0,1,752.5,478.45Z"/><path class="cls-1" d="M761.38,477.21a2.29,2.29,0,0,1-.87,1.93,2.44,2.44,0,0,1-3.36-.32l-26.43-31.17a2.25,2.25,0,0,1,.34-3.24,2.44,2.44,0,0,1,3.35.32l26.44,31.17A2.28,2.28,0,0,1,761.38,477.21Z"/><path class="cls-1" d="M1011.21,545.75c-75,7-169.06-22-222.69-75.08C735.28,417.93,714,328.76,760,264.35c33.94-47.51,108.76-69.52,148-14.1,17.61,24.9,16.72,65.15-18.4,74.2-8.78,2.16-18.07.52-24.83-5.81s-11.3-19.88-.58-25.46c7.34-3.82,2.42,8.26,3.86,10.81,2.85,5.05,10.28,5.32,14.7,2.62,10.15-3.14,9.92-18,7.15-25.36-11.66-21.12-36.85-29.76-59.24-22.1-27.94,9.56-48,37.27-54.24,66.93-8.54,40.88,5,83,30.55,115.13,24,30.23,56.89,53,91.43,69.68a324,324,0,0,0,53.43,20.2c10,2.8,45.14,8.21,58.78,6.76A20.07,20.07,0,0,0,1011.21,545.75Z"/><path class="cls-1" d="M865.29,5.51c-5.35,4.91-37.7,29.85-48.16,37.81C803.07,54,792.21,65.24,787,84.11c-15-24.26-41.64-39.17-65.13-54.6-5.4-5.16-13-3.52-14.21,1.23C701.6,55,697,76.66,688.19,99.18A185.76,185.76,0,0,0,675.08,158c-2.28,44.26,26.88,66.61,59.44,89.41,4.66,3.27,10.12.34,11.74-3.6,27.88-16.31,49.06-36.29,83.2-40.41,34.71-4.17,72.06,14.93,94.43,52.31,18.34,2.45,44.69-1,59.26-8.63,17.46-9.14,30.44-22.29,41.47-38.53,10-14.64,16.07-31.35,20.07-48.49,5.26-22.53-.57-50.84,14.83-70,.1-.13.16-.26.25-.39,6.34-3.58,1.73-14.9-6.46-12.78-27.68,7.16-58.79-4.93-87.41,2.31-16.78,4.24-30.44,12.23-43.4,22.41-.88-33.06-20.61-64.76-38.37-91.72C878.11-2.38,872.72-2.51,865.29,5.51ZM737.54,232.29c-12.24-8.34-25.19-16-34.46-27.77-29.22-36.93-4.77-94.58,25.13-141.24,86.9,34,61.69,79.77,58.62,134.11C767.69,207.07,753.31,215.73,737.54,232.29ZM979.21,101.77c16.95-.82,33.9,2.42,50.61,1.67-9.76,21.6-7,48.2-12.32,71-5,21.65-5.79,30.49-21.18,46.19-17.37,17.73-40.12,18.58-63,20.88-9-20.75-26.84-35.16-47.43-43.67,5.9-16.15,17.16-29.51,25.6-44.35,5.66-9.93,8.6-21.18,10-32.55C942.45,102.3,950.75,103.14,979.21,101.77Zm-70.89,3.39c6.06,34.49-24.28,58.08-35.78,88.07-24.47-8.53-47.7-7.67-70.83,1.48,4.42-29.65,4.57-61.44-5.21-89.89C814,69.24,845.1,48.23,866.89,40.24,888.29,61,903.82,79.62,908.32,105.16Z"/><path class="cls-1" d="M761.5,217.86C748.8,176,734.08,131,732.07,86.92c6.64,43.22,25.9,86,42.85,126l-13.42,4.93Z"/><path class="cls-1" d="M747.9,228.85c-13.4-18.65-26.57-39.38-33.45-61.42,11,19.65,27.62,36.81,44.12,51.9l-10.67,9.52Z"/><path class="cls-1" d="M773.9,209.12c-2.83-21.83-5.92-43.88-6.64-65.9,5.41,21.21,13.13,41.95,20.53,62.53l-13.89,3.37Z"/><path class="cls-1" d="M833.12,191.32c8.73-42.5,17.7-85.15,29.48-126.93-7.1,42.69-11.33,85.94-15.34,129l-14.14-2.08Z"/><path class="cls-1" d="M816.35,192.73l7.95-72.8q3.16,36.48,6.35,73l-14.3-.16Z"/><path class="cls-1" d="M849.89,192.13l31-54.86q-8.92,30.22-17.84,60.44l-13.17-5.58Z"/><path class="cls-1" d="M902.39,213l91.53-82.19Q953.24,176.89,912.55,223L902.39,213Z"/><path class="cls-1" d="M918,227c19.69-8.62,42-17.67,58.44-31.85-13.33,17.67-33.63,31.47-51.39,44.3L918,227Z"/><path class="cls-1" d="M888.39,204.06q25.89-32,51.8-63.95-20,36-40,72l-11.84-8Z"/><path class="cls-1" d="M815.4,329.53c-13.07-4.45-16.21-20.24-11.42-31.87,4.69-11.46,17.58-20.35,30-14.88,11.73,5.17,17.31,20.66,12.5,32.3C841.45,327.21,827.26,333.56,815.4,329.53Z"/><path class="cls-1" d="M816.59,385.59c-12.08,1.17-20.54-10-21.29-21.13s6.1-23.36,18.24-23.83c11.44-.44,21.52,9.83,22.8,21C837.77,374.22,828,384.49,816.59,385.59Z"/><path class="cls-1" d="M815.94,425.42c-12.49-22.64,20.57-39.5,31.86-17.49C859.34,430.42,828.25,447.92,815.94,425.42Z"/><path class="cls-1" d="M851.56,467.5c-16-15.43,5.87-37.15,21.93-22.71C890.09,459.72,867.53,482.93,851.56,467.5Z"/><path class="cls-1" d="M892.45,496.28c-15.89-10-1.26-32.38,14.33-22.64C923.05,483.81,908.32,506.31,892.45,496.28Z"/><path class="cls-1" d="M932.34,515c-13.92-6.35-4.6-26.6,9.14-20C956.12,502,946.31,521.42,932.34,515Z"/><path class="cls-1" d="M964.57,525.52c-11.29-4-5.21-20.61,5.83-16.2C982.15,514,975.86,529.59,964.57,525.52Z"/></g></g></svg>