<svg xmlns="http://www.w3.org/2000/svg" viewBox="0 0 188.71 182.75"><defs><style>.cls-1{fill:#603913;}</style></defs><g id="Layer_2" data-name="Layer 2"><g id="Layer_2-2" data-name="Layer 2"><path class="cls-1" d="M78.65,138.09c6.26-27.88,15.81-44.56,15.81-44.56s7.6,16.69,15.48,44.67c6.68,23.71-7.18,44.58-15.82,44.55S73.25,162.12,78.65,138.09Z"/><path class="cls-1" d="M99.88,92.25c11.6,10.78,34.43,42.08,55.51,35.56C149.75,151.65,108.54,142.17,99.88,92.25Z"/><path class="cls-1" d="M89,92.22C77.27,102.9,54.2,134,33.18,127.35,38.63,151.23,79.91,142.06,89,92.22Z"/><path class="cls-1" d="M69.86,140.47c-2.35,26.81-41.07,51.35-62.72,28.31-7.74-8.22-10.93-24.55-.56-32.18,4.66-3.45,12.34-4.66,16.91-.38,4.24,4,4.09,15.14-4,13.33-.5-3.75,4.16-2.48,3.43-6.6-1-7.43-11.11-4.81-14.4-.92-7.27,8.62.44,22.69,9.28,26.61,10.77,4.88,24.89,1.25,34-5.41a40.37,40.37,0,0,0,11.41-12.91c1.61-2.89,2.67-11.78,6.64-9.85Z"/><path class="cls-1" d="M121.53,140.21c4.62,20.26,30.47,40,51.12,28,7.82-4.5,14.25-17.58,7.59-25.58-3-3.61-10.6-6.2-13.67-1.21-3.21,5.25,3.22,4.58,2.64,8.64-7.13,1.54-8.3-7.69-5.13-12,4.23-5.71,13-4.69,18.13-.86,10.95,8.2,6.59,25.63-2.22,33.56-11,9.85-28.7,8.1-40.71,1.25a41.28,41.28,0,0,1-14.77-14.32c-1.6-2.69-9.37-18.18-3-17.54Z"/><path class="cls-1" d="M78.65,44.66c6.26,27.88,15.81,44.56,15.81,44.56s7.6-16.68,15.48-44.67C116.62,20.84,102.76,0,94.12,0S73.25,20.63,78.65,44.66Z"/><path class="cls-1" d="M99.88,90.5c11.6-10.78,34.43-42.08,55.51-35.56C149.75,31.1,108.54,40.58,99.88,90.5Z"/><path class="cls-1" d="M89,90.53C77.27,79.85,54.2,48.73,33.18,55.4,38.63,31.52,79.91,40.69,89,90.53Z"/><path class="cls-1" d="M69.86,42.28C67.51,15.47,28.79-9.07,7.14,14-.6,22.19-3.79,38.52,6.58,46.15c4.66,3.45,12.34,4.66,16.91.38,4.24-4,4.09-15.14-4-13.33C19,37,23.63,35.68,22.9,39.8c-1,7.43-11.11,4.81-14.4.92C1.23,32.1,8.94,18,17.78,14.11c10.77-4.88,24.89-1.25,34,5.41A40.37,40.37,0,0,1,63.22,32.43c1.61,2.89,2.67,11.78,6.64,9.85Z"/><path class="cls-1" d="M121.53,42.54c4.62-20.26,30.47-40,51.12-28,7.82,4.5,14.25,17.58,7.59,25.58-3,3.61-10.6,6.2-13.67,1.21-3.21-5.25,3.22-4.58,2.64-8.64-7.13-1.54-8.3,7.69-5.13,12,4.23,5.71,13,4.69,18.13.86,10.95-8.2,6.59-25.63-2.22-33.56-11-9.85-28.7-8.1-40.71-1.25A41.36,41.36,0,0,0,124.51,25c-1.6,2.69-9.37,18.18-3,17.54Z"/></g></g></svg>