<svg xmlns="http://www.w3.org/2000/svg" viewBox="0 0 128 44.13"><defs><style>.cls-1{fill:#603913;}</style></defs><g id="Layer_2" data-name="Layer 2"><g id="Layer_2-2" data-name="Layer 2"><path class="cls-1" d="M30,16.85a66.46,66.46,0,0,0,5.35,17.3A131.09,131.09,0,0,0,42,17.3c2.93-9-2-17.17-5.35-17.3S28.3,7.57,30,16.85Z"/><path class="cls-1" d="M37.38,34.73C42,30.79,51.23,19.17,59.19,22,57.41,12.79,41.49,15.76,37.38,34.73Z"/><path class="cls-1" d="M33.2,34.57C28.89,30.3,20.56,18,12.41,20.24,14.87,11.18,30.53,15.35,33.2,34.57Z"/><path class="cls-1" d="M45.54,41.51c.87-10.27,15.68-19.71,24-10.9,3,3.13,4.21,9.39.24,12.32-1.78,1.33-4.72,1.8-6.47.16S61.72,37.3,64.83,38c.2,1.44-1.59,1-1.31,2.53.39,2.85,4.26,1.84,5.52.34,2.78-3.31-.19-8.69-3.58-10.18-4.13-1.86-9.53-.46-13,2.1a15.49,15.49,0,0,0-4.36,5c-.61,1.11-1,4.52-2.53,3.78Z"/><path class="cls-1" d="M25.75,41.66C24,33.9,14,26.38,6.14,31c-3,1.73-5.44,6.75-2.89,9.81,1.16,1.38,4.07,2.36,5.24.45s-1.24-1.75-1-3.31c2.73-.59,3.19,2.94,2,4.59-1.61,2.19-5,1.81-6.94.35C-1.7,39.72,0,33,3.32,30c4.19-3.78,11-3.13,15.59-.52a15.92,15.92,0,0,1,5.68,5.47c.61,1,3.6,7,1.16,6.72Z"/><path class="cls-1" d="M85.69,27.28A66.64,66.64,0,0,1,91,10a131.09,131.09,0,0,1,6.63,16.85c2.93,9-2,17.18-5.35,17.3S84,36.57,85.69,27.28Z"/><path class="cls-1" d="M93.09,9.4C97.7,13.34,106.94,25,114.9,22.13,113.12,31.35,97.2,28.37,93.09,9.4Z"/><path class="cls-1" d="M88.91,9.56c-4.3,4.28-12.64,16.55-20.79,14.33C70.58,33,86.24,28.78,88.91,9.56Z"/><path class="cls-1" d="M101.25,2.62c.87,10.28,15.68,19.71,24,10.91,3-3.14,4.21-9.4.24-12.33C123.71-.12,120.77-.59,119,1s-1.59,5.79,1.52,5.11c.2-1.43-1.59-1-1.3-2.53.38-2.85,4.26-1.83,5.51-.34,2.78,3.31-.19,8.69-3.58,10.18-4.13,1.86-9.53.46-13-2.1a15.49,15.49,0,0,1-4.36-5c-.61-1.1-1-4.51-2.53-3.78Z"/><path class="cls-1" d="M81.46,2.47c-1.79,7.76-11.72,15.28-19.61,10.7-3-1.73-5.44-6.75-2.89-9.8C60.12,2,63,1,64.2,2.91s-1.24,1.76-1,3.31c2.73.6,3.19-2.94,2-4.59-1.61-2.19-5-1.81-6.94-.34C54,4.42,55.66,11.1,59,14.14c4.19,3.79,11,3.13,15.6.52A15.89,15.89,0,0,0,80.3,9.19c.61-1,3.6-6.95,1.16-6.72Z"/></g></g></svg>