<svg xmlns="http://www.w3.org/2000/svg" viewBox="0 0 512 512"><defs><style>.cls-1{fill:#4d4b30;}.cls-2{fill:#fff;}</style></defs><g id="Layer_2" data-name="Layer 2"><g id="Layer_1-2" data-name="Layer 1"><rect class="cls-1" width="512" height="512"/><path class="cls-2" d="M107,142.52q18.22,0,28.1,3.86a109.33,109.33,0,0,1,17,8.19c2.47,1.44,4.47,2.52,6,3.24a10.53,10.53,0,0,0,4.47,1.08c2.06,0,3.56-1.13,4.48-3.4a44.25,44.25,0,0,0,2.32-10.19h7.1q-.31,5.87-.77,14t-.62,21.46q-.16,13.29-.15,34.89h-7.11a102.78,102.78,0,0,0-7.41-31.18A64.27,64.27,0,0,0,143,159.66q-11.28-9.72-27.64-9.73-14.82,0-24.39,8.34t-9.58,23.16q0,12.36,6.18,21.15t18.06,17.14q11.89,8.34,28.88,20.07a299.68,299.68,0,0,1,26.55,19.14,81.24,81.24,0,0,1,18.84,21.62q7.1,12,7.1,28.72,0,20.37-10.65,33.65a64.74,64.74,0,0,1-28,19.92,105.28,105.28,0,0,1-38,6.64q-19.15,0-30.57-3.71a125.88,125.88,0,0,1-19.14-7.72q-6.8-4.32-10.5-4.32-3.09,0-4.48,3.4a44.25,44.25,0,0,0-2.32,10.19H36.3q.62-7.41.77-17.3t.31-25.78q.15-15.9.16-40.3h7.1a154.43,154.43,0,0,0,7,38.14q5.7,17.76,17.6,28.56t31.65,10.81a46.1,46.1,0,0,0,19.3-3.86A32.68,32.68,0,0,0,133.88,346q5.25-7.71,5.25-19.14,0-13-6-22.55a73.8,73.8,0,0,0-16.37-17.9,265.61,265.61,0,0,0-23.93-17q-14.52-9.57-27.17-19.14a79.42,79.42,0,0,1-20.23-21.93Q37.85,216,37.85,199q0-19.46,9.72-32A57.52,57.52,0,0,1,73.2,148.54,94.75,94.75,0,0,1,107,142.52Z"/><path class="cls-2" d="M475.7,146.54v6.17q-9.88.31-14.82,2.32a11.14,11.14,0,0,0-6.64,7.41q-1.71,5.4-1.7,16.83V332.42q0,11.11,1.7,16.68a10.73,10.73,0,0,0,6.64,7.41q4.94,1.85,14.82,2.47v6.17q-8.65-.61-21.77-.77t-26.71-.15q-14.82,0-27.79.15t-21,.77V359q10.5-.62,15.91-2.47a11.15,11.15,0,0,0,7.25-7.41q1.86-5.57,1.85-16.68v-167h2.17L329,365.46h-4.94L240.72,166.61v147.9q0,17,1.85,26.1t8.18,13q6.33,3.85,19.92,5.4v6.17q-5.87-.61-15.44-.77t-17.91-.15q-7.11,0-14.51.15t-12.35.77V359q9.87-1.55,14.82-5.25t6.64-12.2q1.68-8.49,1.69-23.31v-139q0-11.43-1.69-16.83a11.16,11.16,0,0,0-6.8-7.41c-3.39-1.34-8.29-2.11-14.66-2.32v-6.17q4.93.3,12.35.61t14.51.31q13.27,0,26.09-.31t22.7-.61L351,303.09l-7.72,7.1L405.3,147.46h21.92q13.59,0,26.71-.31T475.7,146.54Z"/></g></g></svg>