<svg xmlns="http://www.w3.org/2000/svg" viewBox="0 0 1062.74 784.62"><defs><style>.cls-1{fill:#603913;}</style></defs><g id="Layer_2" data-name="Layer 2"><g id="Layer_2-2" data-name="Layer 2"><path class="cls-1" d="M446.18,259.42c123,49.87,246.1,120.07,383.55,98.92,74.88-11.53,173.55-62.59,226.49-142.89,12.54-19,6.49-50.08-13.87-63.23-18.32-11.84-49.72-6.8-52.87,18.27-1.4,11.08,4.63,23.41,16.6,24.75,9.53,1.08,20.53-6.92,15.62-17.45-7.46.61-2.62,10-11.68,10.19-6.25.11-10.15-4.86-10.84-10.59-2.26-19.3,21.82-23.68,35-16.2,15.65,8.86,18.86,30.34,14,46.26a64.8,64.8,0,0,1-5,11.64c-31.54,5-63.58,9.63-95.72,11.88a39.9,39.9,0,0,0,5.94-7.86c6.79-12.08,6.47-27.16-4.09-37.19-11.12-10.48-32.6-10.32-36.75,7.37-3.15,14.43,19.72,24.88,21.27,9.41-5.73-3-12.28,5.16-12.6-6.09,2.21-11.89,17.57-6.16,22,.25,9.76,13.95-1.75,28.37-15.61,35.17a448.72,448.72,0,0,1-70.42-2.6,38.76,38.76,0,0,0,10.48-9.59c8.29-11.07,9.92-26.08.76-37.38-9.62-11.82-31-14.49-37.38,2.53-5,13.88,16.33,27.25,19.82,12.13-3.65-2.64-15.27,2.53-11.75-7.48,3.45-9.82,15.4-5.84,20.13.17,12.82,16.34-5.15,32.08-22.17,36.5-8.35-1.54-16.68-3.3-25-5.56a367.42,367.42,0,0,1-46.18-15.9,38.53,38.53,0,0,0,18-13.23c8.28-11.06,10-26.07.75-37.39-9.62-11.81-31-14.48-37.33,2.54-5.06,13.88,16.27,27.2,19.82,12.13-3.7-2.63-15.32,2.48-11.79-7.52,3.45-9.78,15.44-5.8,20.12.21,13.34,16.93-6.61,33.28-24.09,36.95-21.88-9.89-43.22-21.16-64.46-32.48a38.08,38.08,0,0,0,22.11-14.34c8.28-11.12,9.93-26.07.71-37.39-9.63-11.85-30.95-14.48-37.33,2.49-5.05,13.93,16.32,27.25,19.82,12.13-3.66-2.64-15.27,2.54-11.79-7.47,3.44-9.82,15.43-5.84,20.16.16,14,17.89-8.87,35.09-26.92,37.42-14.32-7.51-28.64-15-43.16-21.79q-13-6.14-26.36-12.05a38.76,38.76,0,0,0,18-13.21c8.28-11.08,9.92-26.09.71-37.4-9.63-11.81-31-14.48-37.34,2.54-5,13.88,16.32,27.2,19.82,12.13-3.65-2.64-15.27,2.53-11.79-7.53C597.12,72,609.11,76,613.84,82c13.29,16.93-6.56,33.22-24.05,36.89-24.54-10.53-49.9-20.45-75.71-29.14a38.51,38.51,0,0,0,15.66-12.31c8.28-11.07,9.92-26.08.7-37.39-9.63-11.81-31-14.48-37.33,2.54-5.05,13.88,16.33,27.24,19.82,12.13-3.66-2.64-15.27,2.53-11.74-7.48,3.39-9.82,15.39-5.83,20.11.17,13.25,16.88-6.45,33.17-23.94,36.89A682.06,682.06,0,0,0,415.8,63.94a38,38,0,0,0,13-13c7.13-11.91,7.75-27.23-2.33-37.83C416,2.13,395.14.43,388.73,17c-6.32,16.44,20.52,27.88,20.87,11.48-5.94-2.64-11.74,6.08-13-5.15,1.29-12,17-7.42,22-1.39,12.37,15.17-3.22,33.06-19,39.21a485.05,485.05,0,0,0-73.33-5.74,38.37,38.37,0,0,0,8.87-16.22c3.5-13.46-.21-28.32-12.89-35.64C309.08-4,288.58.3,287.11,18s27.53,21,23.3,5.17c-4.48-.58-12.3,9.42-13.93-1.08-1.54-10.22,10.88-12.39,17.86-9.29,19.11,8.39,10.5,31.09-2.7,42.91a380,380,0,0,0-68.86,8.48A37.89,37.89,0,0,0,248,44.44c-.18-14.4-8.37-28.17-23.26-31.29-15.54-3.28-35,9.31-27.53,27.13,5.81,13.39,30.58,8.64,22.71-4.81-4.45.61-9.39,12.33-13.68,2.62-4.22-9.48,7.14-14.82,14.71-13.68,21.12,3.12,18.25,28.28,8.16,43.05a299.18,299.18,0,0,0-65.39,25.88,38,38,0,0,0,2.19-16.89C164.46,62.07,155.19,49,140,47.22,124.26,45.3,106,59.48,114.9,76.6c7,12.84,31.23,6,22.26-6.75-4.38,1-8.3,13.12-13.42,3.85-5-9.09,5.92-15.41,13.54-14.94,21.9,1.34,20.49,28.18,10.9,43.59A287.92,287.92,0,0,0,105,135.24a35.65,35.65,0,0,0-1.66-8.92C99,112.56,87.16,101.79,72,103.17c-15.81,1.42-30.79,19.13-18.4,34,9.49,11.1,31.77-.71,20.31-11.26-5.85,2.7-3.29,13-12.46,6.38-8.15-8.91,5.68-17.7,13.48-17.43C91,115.44,96,131.56,94,146.15A257.68,257.68,0,0,0,39.1,231.56c64.32-17,130.27-34.36,197.36-30.84C309.48,204.54,379.23,232.25,446.18,259.42ZM286.36,171c-14.79-36.32-89.88-41.06-104.21-1.56C158.17,148,121.52,150,98,171.5a51.81,51.81,0,0,0-16.56,34.38c-5.83,1.41-11.67,2.88-17.48,4.38C111.6,122.17,206.09,75.4,303.6,70.6c142-6.95,277.59,55.83,400.41,120,40.13,21,81,40.24,125.68,49.08,60.25,11.93,170-.59,193.37-4.31-3.25,6-10.49,10.2-15.92,14.75-25.93-15.7-57.37,11-48.91,31.78-23.74-12-82.36.34-81,36.61-22.06-24.22-62.58-17-74.89,15.26-19.09-27.22-60.63-32.39-83.84-7.34-12.15-37.63-51.74-44.37-81.08-21.08-4-42.11-57.61-57.27-92.06-42.22-5.58-37.85-60-56.16-90.62-37.66-2.11-42.52-58.35-54.59-88.3-31C365.1,154.86,309.8,140.47,286.36,171Z"/><path class="cls-1" d="M883.07,276.54A12.71,12.71,0,1,1,895,263.05,12.72,12.72,0,0,1,883.07,276.54Z"/><path class="cls-1" d="M828,286.37a12.71,12.71,0,1,1,11.89-13.49A12.7,12.7,0,0,1,828,286.37Z"/><path class="cls-1" d="M772,281.94a12.71,12.71,0,1,1,11.89-13.49A12.73,12.73,0,0,1,772,281.94Z"/><path class="cls-1" d="M719.83,262.92a12.71,12.71,0,1,1,11.89-13.48A12.71,12.71,0,0,1,719.83,262.92Z"/><path class="cls-1" d="M661.15,241.14A12.71,12.71,0,1,1,673,227.65,12.72,12.72,0,0,1,661.15,241.14Z"/><path class="cls-1" d="M597.42,214.89a12.71,12.71,0,1,1,11.88-13.48A12.72,12.72,0,0,1,597.42,214.89Z"/><path class="cls-1" d="M541.81,191.32a12.71,12.71,0,1,1,11.88-13.48A12.71,12.71,0,0,1,541.81,191.32Z"/><path class="cls-1" d="M478,163.5A12.72,12.72,0,1,1,489.86,150,12.73,12.73,0,0,1,478,163.5Z"/><path class="cls-1" d="M416.22,143.5A12.71,12.71,0,1,1,428.11,130,12.71,12.71,0,0,1,416.22,143.5Z"/><path class="cls-1" d="M354.77,128.26a12.71,12.71,0,1,1,11.89-13.49A12.72,12.72,0,0,1,354.77,128.26Z"/><path class="cls-1" d="M284.41,123.13a12.71,12.71,0,1,1,11.88-13.49A12.72,12.72,0,0,1,284.41,123.13Z"/><path class="cls-1" d="M211.46,127.71a12.71,12.71,0,1,1,11.89-13.49A12.7,12.7,0,0,1,211.46,127.71Z"/><path class="cls-1" d="M447.63,611.64c20.7-1.3,39-22.84,37.68-44.29a35.6,35.6,0,0,0-2.12-10.15c.13-.05.28-.06.41-.11,7-2.26,25.52-8.25,23.53-39.88-1.23-19.56-10.19-45.88-26.65-78.37-19.79-38.92-41-70.26-64.91-95.73-29.13-31.07-67.77-58.94-108-80-45.63-23.85-96.24-33.32-137.62-33.49,67.12-5.41,127.33,18,171.78,45,47.11,28.61,85.46,53.75,113.73,95.39,26.89,39.62,41.08,78.28,57.45,123l1.67,4.53c8.35,22.73,40,55.23,63.17,52.29,8-1,17.77-6.66,21.6-27,20.57,35.34,43.36,43.84,58.32,39.6,12.63-3.52,20.12-15.83,19.15-31.24-.58-9.23-4.39-23.46-19-39.74,5.57-4.07,19.31-15,18-35.09-1.57-25-25.9-54.82-72.33-88.49-49.25-35.78-87.84-61-125.07-82-48.08-27-92.88-46.18-136.88-58.55-56.11-15.77-105.92-21.85-152.34-18.75-49,3.32-98.42,17-138.12,28l.9,4.68.23,8.94,18.29-1.75C77,247.14,136,236.89,200.18,255c70.21,19.8,117.36,64.79,140.17,133.66,2.47,7.48,4.21,25.33,6.18,45.93,4.88,51.09,11.52,121,37.46,131.13,7.55,2.92,16.15.71,25.53-6.61C413.7,609.71,439.64,612.14,447.63,611.64Zm153-240c10.36,7.47,19.51,14.72,27.54,21.77H628c0,.48-2.31,48.38-35,77.08-18.91,16.62-44.35,23.66-75.57,20.94l-.06-.09c-6.22-17-12.32-33.56-19-49.86,56-12,82.32-67.12,87.9-80.26C591,364.61,595.71,368,600.66,371.64ZM533.1,324.73c-2.17,8.79-15.16,52-62.28,60.75-3.59-6.07-7.36-12.14-11.46-18.19-3.26-4.71-6.6-9.23-10.07-13.6,36.28-6.29,49.58-37.93,53-48.37C512.25,311.38,522.49,317.81,533.1,324.73Zm-76.74-45.51c-3.07,7.5-14.88,31.6-41.76,39.35-17.38-14.48-36.73-27.31-58-40.48,23.82-5.37,31.67-22.63,33.87-29.31A669.19,669.19,0,0,1,456.36,279.22ZM321.22,336.57a196.71,196.71,0,0,0-21.39-28c8.69,1.46,16.35.26,22.79-3.58,9.16-5.45,13.41-14.64,15-19.19a397.62,397.62,0,0,1,42,30.36C375.72,321.49,360.91,336.7,321.22,336.57Zm27.59,73.58c-1.12-10.25-2.34-18.29-3.93-23-.7-2.15-1.5-4.21-2.25-6.31,52.64,9.35,74-13.67,80.05-22.51A352.93,352.93,0,0,1,448,392.26C443,398.12,409.22,433.58,348.81,410.15Zm10.28,89c-2.35-13.84-4.13-28.49-5.57-42.34,73.4,27.29,113.24-5.07,123.14-14.9a368.87,368.87,0,0,1,15.62,35C485.83,483,437.64,524.82,359.09,499.19Z"/><path class="cls-1" d="M575.39,374.23a2.32,2.32,0,0,1,3.89-1.87l48.24,43.81a2.37,2.37,0,0,1,.16,3.31,2.33,2.33,0,0,1-3.29.16l-48.24-43.83A2.35,2.35,0,0,1,575.39,374.23Z"/><path class="cls-1" d="M565.59,389.17a2.34,2.34,0,0,1,4-1.78l49.62,50.52a2.31,2.31,0,0,1-.05,3.29,2.35,2.35,0,0,1-3.32,0l-49.61-50.52A2.26,2.26,0,0,1,565.59,389.17Z"/><path class="cls-1" d="M554,404.87a2.33,2.33,0,0,1,.83-2,2.39,2.39,0,0,1,3.36.26l48.33,56.66a2.38,2.38,0,1,1-3.62,3.1L554.6,406.27A2.42,2.42,0,0,1,554,404.87Z"/><path class="cls-1" d="M540.51,417.66a2.38,2.38,0,0,1,4.27-1.6l45.51,59.23a2.38,2.38,0,1,1-3.77,2.9L541,419A2.37,2.37,0,0,1,540.51,417.66Z"/><path class="cls-1" d="M525.61,427.55a2.38,2.38,0,0,1,4.36-1.47l40.2,60.16a2.38,2.38,0,1,1-4,2.64L526,428.73A2.48,2.48,0,0,1,525.61,427.55Z"/><path class="cls-1" d="M510.53,434.47a2.38,2.38,0,0,1,4.46-1.29l31.73,58.3a2.39,2.39,0,0,1-4.19,2.28l-31.72-58.3A2.38,2.38,0,0,1,510.53,434.47Z"/><path class="cls-1" d="M469.91,443.59a2.38,2.38,0,0,1,4.58-1.06l16.18,39a2.38,2.38,0,1,1-4.4,1.82l-16.18-39A2.34,2.34,0,0,1,469.91,443.59Z"/><path class="cls-1" d="M458.46,451.47a2.38,2.38,0,0,1,4.6-1l15.66,40.21a2.38,2.38,0,1,1-4.44,1.74l-15.66-40.21A2.67,2.67,0,0,1,458.46,451.47Z"/><path class="cls-1" d="M445.77,458.56a2.31,2.31,0,0,1,1.66-2.34,2.38,2.38,0,0,1,3,1.48l13.27,40.12a2.28,2.28,0,0,1-1.54,2.9,2.39,2.39,0,0,1-3-1.48l-13.27-40.12A2.77,2.77,0,0,1,445.77,458.56Z"/><path class="cls-1" d="M428.81,464.08a2.38,2.38,0,0,1,4.69-.73l10.35,41.14a2.39,2.39,0,0,1-4.63,1.16l-10.35-41.14A2.12,2.12,0,0,1,428.81,464.08Z"/><path class="cls-1" d="M413.36,465.21a2.35,2.35,0,0,1,2-2.47,2.39,2.39,0,0,1,2.74,1.95L425,508.31a2.35,2.35,0,0,1-2,2.69,2.38,2.38,0,0,1-2.73-1.95l-6.92-43.63A1.49,1.49,0,0,1,413.36,465.21Z"/><path class="cls-1" d="M397.27,465.69a2.39,2.39,0,0,1,4.75-.43l5.17,44.27a2.39,2.39,0,0,1-4.74.55l-5.17-44.27A.45.45,0,0,0,397.27,465.69Z"/><path class="cls-1" d="M378,463.31a2.33,2.33,0,0,1,2.11-2.44,2.36,2.36,0,0,1,2.64,2l5.17,44.3a2.33,2.33,0,0,1-2.11,2.57,2.36,2.36,0,0,1-2.63-2L378,463.43A.49.49,0,0,1,378,463.31Z"/><path class="cls-1" d="M361.61,458.75a2.38,2.38,0,0,1,4.74-.46l5.78,44.41a2.39,2.39,0,1,1-4.73.62l-5.77-44.41C361.62,458.86,361.62,458.8,361.61,458.75Z"/><path class="cls-1" d="M415.84,362.21a2.39,2.39,0,0,1,4.3-1.56L446.24,396a2.39,2.39,0,1,1-3.84,2.83l-26.1-35.37A2.4,2.4,0,0,1,415.84,362.21Z"/><path class="cls-1" d="M407.33,369.31a2.39,2.39,0,0,1,4.35-1.49l25,36.64a2.38,2.38,0,1,1-3.94,2.68l-25-36.63A2.35,2.35,0,0,1,407.33,369.31Z"/><path class="cls-1" d="M399.31,374.6a2.39,2.39,0,0,1,4.47-1.31l20.89,38.1a2.38,2.38,0,0,1-4.17,2.29L399.6,375.6A2.49,2.49,0,0,1,399.31,374.6Z"/><path class="cls-1" d="M386.49,379.58a2.38,2.38,0,0,1,4.56-1.08l16.11,37.79a2.38,2.38,0,1,1-4.38,1.87l-16.11-37.79A2.82,2.82,0,0,1,386.49,379.58Z"/><path class="cls-1" d="M372.25,381.07a2.39,2.39,0,0,1,4.64-.91l13.2,39.17a2.37,2.37,0,1,1-4.5,1.52l-13.22-39.17A2.63,2.63,0,0,1,372.25,381.07Z"/><path class="cls-1" d="M361.51,381.14a2.39,2.39,0,0,1,4.71-.66l8.3,37.09a2.39,2.39,0,1,1-4.66,1l-8.3-37.09C361.54,381.39,361.52,381.27,361.51,381.14Z"/><path class="cls-1" d="M350.77,381.23a2.38,2.38,0,0,1,4.7-.65l7.6,35.34a2.38,2.38,0,0,1-4.66,1l-7.59-35.34A2.27,2.27,0,0,1,350.77,381.23Z"/><path class="cls-1" d="M496.1,309.41a2.39,2.39,0,0,1,3.75-2.1l34.35,24.11a2.38,2.38,0,1,1-2.74,3.9l-34.35-24.11A2.37,2.37,0,0,1,496.1,309.41Z"/><path class="cls-1" d="M489.68,321.16a2.3,2.3,0,0,1,.46-1.56,2.37,2.37,0,0,1,3.32-.51l34.43,25.3a2.35,2.35,0,0,1,.5,3.32,2.38,2.38,0,0,1-3.33.52l-34.42-25.3A2.34,2.34,0,0,1,489.68,321.16Z"/><path class="cls-1" d="M484.29,330.45a2.33,2.33,0,0,1,.59-1.72,2.38,2.38,0,0,1,3.36-.22l32.23,28.42a2.38,2.38,0,1,1-3.14,3.58l-32.24-28.42A2.39,2.39,0,0,1,484.29,330.45Z"/><path class="cls-1" d="M473.55,340.08a2.38,2.38,0,0,1,4-1.87l31.12,29.68a2.38,2.38,0,1,1-3.29,3.45l-31.11-29.68A2.37,2.37,0,0,1,473.55,340.08Z"/><path class="cls-1" d="M462,346.18a2.35,2.35,0,0,1,.79-1.93,2.38,2.38,0,0,1,3.36.19l30.19,33.93a2.38,2.38,0,0,1-3.56,3.17l-30.19-33.93A2.36,2.36,0,0,1,462,346.18Z"/><path class="cls-1" d="M453.3,350.23a2.27,2.27,0,0,1,1-2,2.35,2.35,0,0,1,3.26.51l25.62,34.82a2.3,2.3,0,0,1-.53,3.23,2.33,2.33,0,0,1-3.25-.52l-25.63-34.82A2.25,2.25,0,0,1,453.3,350.23Z"/><path class="cls-1" d="M384.6,251.35a2.37,2.37,0,0,1,.24-1.21,2.31,2.31,0,0,1,3.13-1.07l68.32,34.5a2.43,2.43,0,0,1,1.07,3.2,2.33,2.33,0,0,1-3.14,1.08L385.9,253.34A2.4,2.4,0,0,1,384.6,251.35Z"/><path class="cls-1" d="M381,261.12a2.59,2.59,0,0,1,.26-1.27,2.23,2.23,0,0,1,3.08-1l65,36.51a2.45,2.45,0,0,1,.95,3.23,2.22,2.22,0,0,1-3.08,1l-65-36.51A2.42,2.42,0,0,1,381,261.12Z"/><path class="cls-1" d="M371.18,268.91a2.41,2.41,0,0,1,.31-1.34,2.38,2.38,0,0,1,3.25-.88l65.64,37.67a2.38,2.38,0,1,1-2.37,4.12l-65.64-37.66A2.31,2.31,0,0,1,371.18,268.91Z"/><path class="cls-1" d="M362,274.26a2.3,2.3,0,0,1,.38-1.45,2.4,2.4,0,0,1,3.3-.7l63.49,41.39a2.38,2.38,0,0,1-2.6,4L363,276.11A2.36,2.36,0,0,1,362,274.26Z"/><path class="cls-1" d="M333,288.61a2.39,2.39,0,0,1,3.83-2l42,32a2.38,2.38,0,1,1-2.88,3.78l-42-32A2.37,2.37,0,0,1,333,288.61Z"/><path class="cls-1" d="M326.4,297.39a2.37,2.37,0,0,1,3.86-2l39.6,31.54a2.39,2.39,0,0,1-3,3.73l-39.59-31.54A2.38,2.38,0,0,1,326.4,297.39Z"/><path class="cls-1" d="M319,303.23a2.33,2.33,0,0,1,.59-1.72,2.37,2.37,0,0,1,3.36-.22l34.76,30.65a2.39,2.39,0,0,1-3.16,3.58l-34.75-30.66A2.32,2.32,0,0,1,319,303.23Z"/><path class="cls-1" d="M310.23,306.17a2.39,2.39,0,0,1,4.06-1.85l31.19,30.88a2.38,2.38,0,0,1-3.35,3.39l-31.19-30.88A2.42,2.42,0,0,1,310.23,306.17Z"/><path class="cls-1" d="M301.36,307.41a2.29,2.29,0,0,1,.87-1.93,2.44,2.44,0,0,1,3.36.32L332,337a2.25,2.25,0,0,1-.34,3.24,2.45,2.45,0,0,1-3.36-.32l-26.43-31.17A2.28,2.28,0,0,1,301.36,307.41Z"/><path class="cls-1" d="M51.53,238.87c75-7,169.06,21.95,222.69,75.08,53.24,52.74,74.56,141.9,28.55,206.32-33.94,47.51-108.76,69.52-148,14.1-17.6-24.9-16.71-65.15,18.41-74.2C182,458,191.27,459.65,198,466s11.3,19.88.58,25.46c-7.34,3.82-2.43-8.26-3.86-10.81-2.85-5.05-10.28-5.32-14.7-2.62-10.15,3.14-9.92,18-7.15,25.36,11.66,21.12,36.84,29.76,59.24,22.1,27.93-9.56,48-37.27,54.24-66.93,8.53-40.88-5-83-30.55-115.13-24-30.23-56.9-53-91.44-69.68A323.86,323.86,0,0,0,111,253.53c-10-2.8-45.14-8.21-58.79-6.76A20,20,0,0,0,51.53,238.87Z"/><path class="cls-1" d="M197.44,779.11c5.36-4.91,37.71-29.85,48.17-37.81,14.05-10.67,24.92-21.92,30.14-40.79,14.95,24.26,41.64,39.17,65.12,54.6,5.4,5.16,13,3.52,14.22-1.23,6-24.3,10.61-45.92,19.46-68.44a185.75,185.75,0,0,0,13.1-58.85c2.29-44.26-26.87-66.61-59.43-89.41-4.66-3.27-10.12-.34-11.74,3.6-27.88,16.31-49.06,36.29-83.21,40.41-34.71,4.17-72.05-14.93-94.42-52.31-18.34-2.45-44.69,1-59.26,8.63C62.13,546.65,49.15,559.8,38.12,576c-10,14.64-16.07,31.35-20.07,48.49-5.26,22.53.57,50.84-14.83,70-.1.13-.16.26-.26.39-6.34,3.58-1.72,14.9,6.47,12.78,27.67-7.16,58.79,4.93,87.41-2.31,16.78-4.24,30.44-12.23,43.4-22.41.88,33.06,20.61,64.76,38.37,91.72C184.63,787,190,787.13,197.44,779.11ZM325.2,552.33c12.24,8.34,25.19,16,34.45,27.77,29.22,36.93,4.78,94.58-25.12,141.24-86.9-34-61.69-79.77-58.62-134.11C295.05,577.55,309.43,568.89,325.2,552.33ZM83.52,682.85c-17,.82-33.89-2.42-50.6-1.67,9.75-21.6,7-48.2,12.32-71,5-21.65,5.79-30.49,21.17-46.19,17.37-17.73,40.13-18.58,63-20.88,9,20.75,26.83,35.16,47.43,43.67-5.91,16.15-17.16,29.51-25.61,44.35-5.65,9.93-8.59,21.18-10,32.55C120.28,682.32,112,681.48,83.52,682.85Zm70.89-3.39c-6-34.49,24.29-58.08,35.78-88.07,24.48,8.53,47.71,7.67,70.84-1.48-4.42,29.65-4.57,61.44,5.21,89.89-17.45,35.58-48.6,56.59-70.39,64.58C174.45,723.58,158.91,705,154.41,679.46Z"/><path class="cls-1" d="M301.24,566.76c12.7,41.91,27.42,86.89,29.42,130.94-6.64-43.22-25.89-86-42.84-126l13.42-4.93Z"/><path class="cls-1" d="M314.84,555.77c13.39,18.65,26.57,39.38,33.45,61.42-11-19.65-27.62-36.81-44.12-51.9,3.55-3.18,7.12-6.35,10.67-9.52Z"/><path class="cls-1" d="M288.84,575.5c2.83,21.83,5.91,43.88,6.64,65.9-5.42-21.21-13.13-41.95-20.53-62.53l13.89-3.37Z"/><path class="cls-1" d="M229.62,593.3c-8.73,42.5-17.7,85.15-29.48,126.93,7.09-42.69,11.33-85.94,15.34-129l14.14,2.08Z"/><path class="cls-1" d="M246.38,591.89q-4,36.4-7.94,72.8-3.16-36.48-6.35-73l14.29.16Z"/><path class="cls-1" d="M212.85,592.49l-31,54.86q8.91-30.23,17.84-60.44l13.17,5.58Z"/><path class="cls-1" d="M160.35,571.67,68.82,653.86q40.68-46.12,81.37-92.26l10.16,10.07Z"/><path class="cls-1" d="M144.7,557.63c-19.69,8.62-42,17.67-58.44,31.85,13.34-17.67,33.64-31.47,51.39-44.3q3.54,6.23,7,12.45Z"/><path class="cls-1" d="M174.35,580.56q-25.89,32-51.8,64,20-36,40-72l11.84,8Z"/><path class="cls-1" d="M247.34,455.09c13.06,4.44,16.21,20.24,11.42,31.86s-17.58,20.36-30,14.89c-11.73-5.17-17.32-20.66-12.5-32.3C221.28,457.41,235.48,451.06,247.34,455.09Z"/><path class="cls-1" d="M246.15,399c12.08-1.17,20.54,10.05,21.29,21.13s-6.1,23.36-18.24,23.83c-11.44.44-21.52-9.83-22.8-21C225,410.4,234.74,400.13,246.15,399Z"/><path class="cls-1" d="M246.8,359.2c12.48,22.64-20.58,39.5-31.87,17.49C203.4,354.2,234.48,336.7,246.8,359.2Z"/><path class="cls-1" d="M211.18,317.12c16,15.43-5.87,37.15-21.93,22.71C172.65,324.9,195.21,301.69,211.18,317.12Z"/><path class="cls-1" d="M170.28,288.34c15.89,10.05,1.27,32.38-14.32,22.64C139.69,300.81,154.41,278.31,170.28,288.34Z"/><path class="cls-1" d="M130.4,269.61c13.92,6.35,4.59,26.6-9.15,20C106.62,282.59,116.43,263.2,130.4,269.61Z"/><path class="cls-1" d="M98.17,259.1c11.29,4,5.2,20.61-5.84,16.2C80.59,270.6,86.87,255,98.17,259.1Z"/></g></g></svg>