<svg xmlns="http://www.w3.org/2000/svg" viewBox="0 0 512.3 512"><defs><style>.cls-1{fill:none;}.cls-2{fill:#4d4b30;}</style></defs><g id="Layer_2" data-name="Layer 2"><g id="Layer_1-2" data-name="Layer 1"><rect class="cls-1" width="512" height="512"/><path class="cls-2" d="M82.7,113.72q21.22,0,32.74,4.5a127.66,127.66,0,0,1,19.79,9.54q4.32,2.52,7,3.77a12.1,12.1,0,0,0,5.21,1.26c2.4,0,4.14-1.31,5.22-3.95a51.79,51.79,0,0,0,2.7-11.88h8.27q-.36,6.84-.9,16.37t-.72,25q-.18,15.48-.18,40.66h-8.27a119.91,119.91,0,0,0-8.64-36.34,75,75,0,0,0-20.32-29q-13.14-11.32-32.21-11.33-17.26,0-28.42,9.71t-11.16,27q0,14.4,7.2,24.65t21,20q13.85,9.7,33.64,23.38a348.74,348.74,0,0,1,30.94,22.31,94.31,94.31,0,0,1,22,25.19q8.28,14,8.28,33.46,0,23.75-12.42,39.22t-32.56,23.21a122.66,122.66,0,0,1-44.25,7.73q-22.32,0-35.63-4.32a146.54,146.54,0,0,1-22.3-9q-7.92-5-12.24-5c-2.4,0-4.13,1.32-5.21,4a51.81,51.81,0,0,0-2.7,11.87H.3Q1,367,1.2,355.51t.36-30q.18-18.53.18-47H10A179.57,179.57,0,0,0,18.11,323q6.66,20.7,20.51,33.28t36.88,12.6A53.76,53.76,0,0,0,98,364.33a38.16,38.16,0,0,0,16-13.49q6.12-9,6.12-22.31,0-15.12-7-26.27A85.79,85.79,0,0,0,94,281.39,311.48,311.48,0,0,0,66.15,261.6q-16.92-11.15-31.67-22.3a92.79,92.79,0,0,1-23.56-25.55Q2.1,199.37,2.1,179.57q0-22.66,11.34-37.24A66.84,66.84,0,0,1,43.3,120.74,110.23,110.23,0,0,1,82.7,113.72Z"/><path class="cls-2" d="M512.3,118.4v7.2q-11.52.36-17.27,2.7a13,13,0,0,0-7.73,8.63q-2,6.3-2,19.61V335q0,13,2,19.43a12.48,12.48,0,0,0,7.73,8.64q5.76,2.16,17.27,2.88v7.19q-10.06-.7-25.36-.9t-31.13-.18q-17.26,0-32.38.18t-24.46.9V366q12.22-.72,18.53-2.88a13,13,0,0,0,8.45-8.64q2.16-6.46,2.16-19.43V140.35h2.52L341.4,373.5h-5.76L238.49,141.79V314.14q0,19.78,2.16,30.4t9.54,15.11q7.37,4.5,23.2,6.3v7.19c-4.55-.47-10.56-.77-18-.9s-14.39-.18-20.86-.18c-5.53,0-11.16.07-16.92.18s-10.55.43-14.39.9V366q11.52-1.8,17.27-6.12t7.74-14.21q2-9.9,2-27.17V156.54q0-13.31-2-19.61a13,13,0,0,0-7.92-8.63c-3.95-1.56-9.66-2.46-17.09-2.7v-7.2c3.84.24,8.64.49,14.39.72s11.39.36,16.92.36q15.47,0,30.4-.36t26.44-.72l75.56,182.42-9,8.28,72.32-189.62h25.54q15.84,0,31.13-.36T512.3,118.4Z"/></g></g></svg>